<?xml version="1.0" encoding="UTF-8"?>
<!DOCTYPE svg PUBLIC "-//W3C//DTD SVG 1.1//EN" "http://www.w3.org/Graphics/SVG/1.1/DTD/svg11.dtd">
<!-- Creator: CorelDRAW 2021 (64-Bit) -->
<svg xmlns="http://www.w3.org/2000/svg" xml:space="preserve" width="0.93335in" height="0.246929in" version="1.1" style="shape-rendering:geometricPrecision; text-rendering:geometricPrecision; image-rendering:optimizeQuality; fill-rule:evenodd; clip-rule:evenodd"
viewBox="0 0 927.24 245.31"
 xmlns:xlink="http://www.w3.org/1999/xlink"
 xmlns:xodm="http://www.corel.com/coreldraw/odm/2003">
 <defs>
  <style type="text/css">
   <![CDATA[
    .str0 {stroke:#029D7B;stroke-width:6.9;stroke-linecap:round;stroke-linejoin:round;stroke-miterlimit:2.61313}
    .fil6 {fill:none}
    .fil0 {fill:#029D7B}
    .fil12 {fill:white}
    .fil10 {fill:url(#id0)}
    .fil4 {fill:url(#id1)}
    .fil9 {fill:url(#id2)}
    .fil8 {fill:url(#id3)}
    .fil3 {fill:url(#id4)}
    .fil13 {fill:url(#id5)}
    .fil7 {fill:url(#id6)}
    .fil5 {fill:url(#id7)}
    .fil11 {fill:url(#id8)}
    .fil1 {fill:url(#id9)}
    .fil2 {fill:url(#id10)}
   ]]>
  </style>
  <linearGradient id="id0" gradientUnits="userSpaceOnUse" x1="828.99" y1="184.21" x2="819.64" y2="183.34">
   <stop offset="0" style="stop-opacity:1; stop-color:#58C1A8"/>
   <stop offset="1" style="stop-opacity:1; stop-color:#164757"/>
  </linearGradient>
  <linearGradient id="id1" gradientUnits="userSpaceOnUse" xlink:href="#id0" x1="875.73" y1="157.41" x2="855.13" y2="155.5">
  </linearGradient>
  <linearGradient id="id2" gradientUnits="userSpaceOnUse" xlink:href="#id0" x1="869.16" y1="67.56" x2="859.05" y2="66.62">
  </linearGradient>
  <linearGradient id="id3" gradientUnits="userSpaceOnUse" xlink:href="#id0" x1="825.85" y1="8.84" x2="809.74" y2="7.34">
  </linearGradient>
  <linearGradient id="id4" gradientUnits="userSpaceOnUse" xlink:href="#id0" x1="926.58" y1="114.72" x2="825.85" y2="101.41">
  </linearGradient>
  <linearGradient id="id5" gradientUnits="userSpaceOnUse" xlink:href="#id0" x1="911.73" y1="88.36" x2="879.04" y2="86.38">
  </linearGradient>
  <linearGradient id="id6" gradientUnits="userSpaceOnUse" xlink:href="#id0" x1="761.45" y1="39.34" x2="736.99" y2="37.07">
  </linearGradient>
  <linearGradient id="id7" gradientUnits="userSpaceOnUse" xlink:href="#id0" x1="912.69" y1="157.41" x2="892.09" y2="155.5">
  </linearGradient>
  <linearGradient id="id8" gradientUnits="userSpaceOnUse" xlink:href="#id0" x1="837.41" y1="207.45" x2="818.91" y2="205.74">
  </linearGradient>
  <linearGradient id="id9" gradientUnits="userSpaceOnUse" xlink:href="#id0" x1="456.98" y1="186.56" x2="324.11" y2="173.93">
  </linearGradient>
  <linearGradient id="id10" gradientUnits="userSpaceOnUse" xlink:href="#id0" x1="70.29" y1="83.31" x2="0.52" y2="73.63">
  </linearGradient>
 </defs>
 <g id="Layer_x0020_1">
  <metadata id="CorelCorpID_0Corel-Layer"/>
  <path class="fil0" d="M686.87 187.52c-8.33,-55.6 61.07,-58.32 66.28,-13.97 6.36,54.14 -59.64,58.21 -66.28,13.97zm66.7 -116.9l32.04 0 0.12 171.48 -30.16 -0.83 -1.08 -15.38c-8.82,6.43 -11.61,14.19 -28.87,17.85 -12.89,2.73 -27.33,0.86 -38.25,-4.38 -61.04,-29.31 -36.73,-138.74 37.28,-122.79 15.62,3.37 20.98,9.72 28.67,16.78l0.25 -62.72z"/>
  <path class="fil1" d="M357.82 187.52c-7.98,-51.59 59.08,-60.85 65.72,-13.96 7.19,50.73 -58.56,60.26 -65.72,13.96zm15.67 -70.01c-31.44,7.17 -58.99,38.7 -46.71,81.21 8.87,30.71 41.71,54.48 82.21,44.14 79.3,-20.26 56.41,-146.28 -35.49,-125.35z"/>
  <path class="fil0" d="M583.18 222.3l2.55 19.56 29.15 0.29 -0.64 -124.28 -32.51 -0.18c-0.3,35.61 10.97,95.57 -28.51,99.34 -23.8,2.28 -26.82,-14.12 -26.89,-34.71 -0.08,-21.54 0.35,-43.3 -0.13,-64.8l-31.9 0.21c-1.17,26.18 -4.36,92.68 7.92,110.52 13.7,19.88 43.73,20.78 64.3,9.06 7.93,-4.52 10.19,-9.66 16.67,-15.01z"/>
  <path class="fil0" d="M211.81 212.33l-29.38 -8.07c-0.26,0.3 -1.46,1.69 -1.81,2.07 -20.23,22.6 -57.91,10.14 -57.77,-25.79 0.07,-17.57 8.5,-30.26 21.14,-35.06 21.74,-8.27 30.14,3.94 40.4,11.9 4.6,-1.28 8.86,-3.17 13.6,-5.1 2.05,-0.83 4.17,-1.62 6.16,-2.53l6.83 -4.1c-25.54,-52.18 -123.33,-37.07 -121.03,36.69 2.39,76.8 106.78,77.67 121.86,30z"/>
  <path class="fil0" d="M304.64 238.11l-3.15 -22.03c-16.57,2.08 -22.66,4.78 -22.91,-16.28 -0.34,-28.61 1.41,-97.54 0.65,-129.18l-32.8 0c-1.06,31.52 0.47,88.86 0.49,118.64 0.01,16.48 -2.98,38.14 8.84,48.14 10.24,8.66 37.29,8.42 48.88,0.71z"/>
  <path class="fil2" d="M18.31 67.76c11.5,-19.78 35.85,-15.97 40.5,5.36 17.4,5.07 16.29,29.46 -6.16,28.97 -12.63,0 -25.25,0 -37.88,0 -23.58,-3.23 -16.35,-36.93 3.54,-34.34z"/>
  <rect class="fil0" x="18.24" y="117.91" width="32.74" height="125.41"/>
  <g id="_1745000740224">
   <path class="fil3" d="M825.19 72.87c0,2.92 0,5.84 0,8.76 3.77,0 7.55,0 11.33,0 4.36,13.24 8.73,26.47 13.09,39.7 0.65,1.97 0.97,1.72 0.33,3.39 -3.89,10.3 -2.12,13.24 6.07,19.15 19.44,0 38.88,0 58.32,0 0,-2.57 0,-5.14 0,-7.71 -17.52,0 -35.05,0 -52.58,0 -7.93,0.69 -8.81,-9.63 0,-9.52 17.83,0 35.65,0 53.48,0 3.68,-10.68 7.35,-21.35 11.03,-32.03 3.02,-8.49 -0.83,-10.04 -12.99,-10.12 -21.1,-0.45 -42.2,-0.91 -63.3,-1.36 -2.57,0.25 -4.02,-1.22 -4.38,-4.38 -0.34,-4.34 -2.5,-6.52 -6.5,-6.5 -4.63,0.2 -9.27,0.4 -13.9,0.61z"/>
   <circle class="fil4" cx="865.43" cy="156.46" r="10.34"/>
   <circle class="fil5" cx="902.39" cy="156.46" r="10.34"/>
   <path class="fil6 str0" d="M886.25 64.68c-6.59,-27.53 -25.08,-43.99 -52.31,-52.3"/>
   <path class="fil6 str0" d="M864.11 67.09c-20.67,-31.87 -60.46,-32.92 -103.28,-29.08"/>
   <circle class="fil7" cx="749.22" cy="38.21" r="12.28"/>
   <circle class="fil8" cx="817.8" cy="8.09" r="8.09"/>
   <circle class="fil9" cx="864.11" cy="67.09" r="5.07"/>
   <circle class="fil10" cx="824.32" cy="183.78" r="4.7"/>
   <circle class="fil11" cx="828.16" cy="206.59" r="9.29"/>
   <path class="fil6 str0" d="M833.92 183.32c6.26,-1.56 11.82,-4.17 16.63,-7.97"/>
   <path class="fil6 str0" d="M841.77 204.34c19.47,-3.41 33.13,-14.21 39.6,-34.17"/>
   <ellipse class="fil12" cx="857.35" cy="98.21" rx="4.06" ry="3.83"/>
   <ellipse class="fil12" cx="858.82" cy="112.26" rx="4.06" ry="3.83"/>
   <ellipse class="fil12" cx="876.21" cy="112.26" rx="4.06" ry="3.83"/>
   <path class="fil12" d="M896.38 57.7c-6.86,9.64 -14.74,22.2 -21.6,31.84 -1.65,2.55 -1.13,3.95 1.97,3.98 3.16,0 6.32,0 9.48,0 0,2.17 0,4.34 0,6.51 3.93,4.66 7.87,9.32 11.81,13.99 2.79,3.66 4.77,4.38 5.37,0 0.4,-6.29 0.81,-12.57 1.21,-18.86 2.32,0 4.63,0 6.94,0 4.62,-0.65 6.68,-2.63 4.47,-6.79 -6.89,-9.25 -12.76,-21.42 -19.65,-30.67z"/>
   <path class="fil13" d="M896.94 62.48c-5.2,8.23 -11.99,18.05 -17.19,26.29 -1.25,2.18 -0.86,3.38 1.49,3.39 2.4,0 4.8,0 7.2,0 0,1.85 0,3.71 0,5.56 2.98,3.98 5.97,7.96 8.96,11.95 2.12,3.13 3.62,3.74 4.07,0 0.31,-5.37 0.61,-10.74 0.92,-16.11 1.76,0 3.51,0 5.26,0 3.51,-0.56 5.07,-2.25 3.39,-5.8 -5.23,-7.9 -8.87,-17.39 -14.1,-25.29z"/>
   <circle class="fil12" cx="865.43" cy="156.46" r="4.63"/>
   <circle class="fil12" cx="902.39" cy="156.46" r="4.63"/>
   <circle class="fil12" cx="749.22" cy="38.21" r="8.89"/>
  </g>
 </g>
</svg>
